<svg xmlns="http://www.w3.org/2000/svg" width="187.634" height="187.728" viewBox="0 0 49.645 49.67"><g fill="#fff" stroke="#9e0006" stroke-width=".023"><path d="M22.868 49.605c-2.635-.166-5.706-.961-8.394-2.172-4.312-1.944-8.267-5.428-10.788-9.502C1.84 34.946.672 31.67.161 28.038c-.2-1.422-.199-5.079.003-6.461.842-5.76 3.267-10.545 7.365-14.534 2.822-2.746 5.708-4.502 9.52-5.793 6.96-2.357 15.092-1.303 21.27 2.756 3.772 2.48 6.693 5.754 8.674 9.724 1.503 3.012 2.322 5.942 2.568 9.178a24.863 24.863 0 0 1-19.775 26.268c-2.005.416-4.589.576-6.918.429zm.589-7.641c4.23-.473 7.387-1.492 9.967-3.218 1.793-1.199 2.982-2.55 3.587-4.073.303-.762.318-.859.322-2.171.004-1.306-.009-1.4-.266-1.925-.515-1.049-1.378-1.832-2.784-2.528-1.86-.92-3.076-1.053-10.931-1.188-5.915-.102-7.316-.207-8.126-.61-1.239-.615-1.151-1.793.246-3.302.349-.377.854-.87 1.122-1.094l.489-.409 1.004.444c1.325.585 2.421.918 3.794 1.153 6.843 1.17 14.066-1.536 15.62-5.85.344-.96.354-2.009.03-3.259l-.272-1.051.26-.514c.144-.282.374-.587.512-.677.238-.156.31-.15 1.4.104 1.241.29 1.423.28 2.185-.1 1.617-.807 1.532-3.001-.152-3.895-.322-.172-.568-.213-1.282-.214-1.085-.002-1.584.21-2.367 1.006-.5.507-1.273 1.85-1.587 2.755l-.114.33-.467-.39c-1.488-1.243-3.716-2.275-5.865-2.719-1.198-.247-2.99-.347-4.51-.25-2.379.15-4.233.628-6.32 1.628-3.316 1.59-5.006 3.538-5.176 5.97-.098 1.4.338 2.648 1.338 3.828.272.321.495.608.495.638 0 .029-.364.282-.81.563-1.989 1.252-3.401 2.71-4.02 4.147-.301.7-.317.8-.319 1.964 0 1.179.012 1.253.315 1.893.355.75 1.141 1.632 1.95 2.19.292.2.53.391.53.424 0 .033-.407.211-.905.396-2.621.971-4.633 2.347-5.21 3.562-1.034 2.18.465 4.39 3.76 5.54 1.432.5 2.824.767 5.445 1.043.703.074 6.155-.034 7.112-.141z"/><path d="M22.731 21.561c-.788-.367-1.194-.912-1.324-1.778-.182-1.214.885-5.774 1.778-7.599.798-1.63 2.317-2.485 4.22-2.372 1.649.097 2.676 1.034 2.681 2.447.004.988-.438 2.97-1.145 5.136-.743 2.276-1.56 3.392-2.973 4.057-.465.22-.695.259-1.667.285-.979.025-1.187.002-1.57-.176zm-3.963 18.781c-1.77-.275-2.787-.628-3.837-1.33-1.358-.909-2.01-1.92-2.087-3.242-.04-.683-.018-.812.247-1.373.188-.397.5-.822.87-1.182.969-.942.872-.91 2.054-.672 1.886.379 3.44.503 7.5.6 5.875.139 7.254.295 8.073.915.589.446.78.86.722 1.564-.106 1.31-.95 2.276-2.761 3.163-1.93.945-3.938 1.462-6.278 1.617-1.87.123-3.458.102-4.503-.06z"/></g></svg>