<svg xmlns="http://www.w3.org/2000/svg" viewBox="0 0 49.999999 49.999999" height="188.976" width="188.976"><path d="M23.332 49.856c-6.106-.48-11.504-2.91-15.774-7.101C3.438 38.712.934 33.56.236 27.69c-.12-1.007-.137-4.113-.029-5.125.64-5.968 3.202-11.277 7.43-15.403 3.967-3.87 9.029-6.265 14.628-6.92C23.282.123 25.692.079 26.75.16c6.224.474 11.798 3.07 16.11 7.504 3.877 3.986 6.227 8.971 6.903 14.645.137 1.148.138 4.248 0 5.372-.728 5.98-3.234 11.102-7.428 15.18-3.972 3.863-8.989 6.233-14.6 6.897-.706.084-3.734.151-4.405.098zm-.493-7.703c4.582-.398 8-1.43 10.696-3.23 2.173-1.45 3.37-2.95 3.868-4.84.187-.708.235-1.932.101-2.535-.295-1.328-1.311-2.454-2.96-3.28-1.931-.967-3.618-1.145-11.568-1.217-3.607-.033-4.93-.081-6.045-.222-1.18-.149-1.731-.351-2.118-.78-.257-.284-.336-.542-.304-.994.06-.845.816-1.884 2.223-3.06l.572-.478.676.341c1.827.923 4.05 1.465 6.353 1.548 3.58.13 6.454-.438 9.074-1.796 2.444-1.266 3.877-2.811 4.405-4.751.09-.33.115-.585.117-1.186.002-.762 0-.77-.258-1.612-.188-.609-.251-.896-.227-1.024.058-.313.461-1.047.656-1.196.302-.23.463-.225 1.492.052 1.031.277 1.156.29 1.626.168.727-.19 1.396-.725 1.586-1.269.22-.626.153-1.431-.16-1.926-.171-.273-.65-.695-.97-.857-.534-.27-1.336-.367-1.97-.236-.764.159-1.594.77-2.165 1.598-.332.48-.802 1.418-1.026 2.049-.088.248-.174.45-.191.45-.018 0-.164-.112-.326-.25-1.373-1.172-3.174-2.103-5.08-2.625-1.404-.385-2.578-.53-4.302-.53-2.859 0-5.353.589-7.832 1.85-2.637 1.34-4.146 2.92-4.644 4.866-.192.746-.204 1.696-.032 2.4.22.9.721 1.766 1.491 2.577l.38.399-.617.37c-2.152 1.29-3.564 2.667-4.264 4.16-.3.64-.433 1.195-.468 1.94-.063 1.361.385 2.492 1.372 3.464.373.366 1.107.921 1.518 1.146l.183.1-.726.265c-1.868.682-3.117 1.307-4.115 2.058-1.17.882-1.732 1.756-1.789 2.784-.106 1.932 1.386 3.484 4.255 4.424 1.605.526 3.35.815 5.96.986.75.05 4.634-.021 5.553-.101z"/><path d="M19.94 40.665a19.215 19.215 0 0 1-2.16-.329c-1.563-.347-2.682-.932-3.639-1.902-.809-.82-1.118-1.468-1.162-2.44-.034-.717.037-1.073.329-1.656.176-.352.331-.556.72-.946.273-.274.65-.6.838-.727l.342-.23.861.192c.964.213 2.082.377 3.187.467.406.033.837.071.957.086.12.014 1.708.05 3.529.079 6.164.097 7.494.279 8.36 1.14.365.361.475.652.473 1.241-.006 1.361-.912 2.456-2.788 3.367-1.637.795-3.379 1.287-5.526 1.561-.633.08-3.683.15-4.321.097zm3.454-18.737c-.38-.072-.913-.327-1.168-.558-.252-.227-.519-.706-.614-1.101-.187-.773-.005-2.196.578-4.527.878-3.508 1.6-4.752 3.171-5.464 1.095-.497 2.645-.527 3.608-.072.621.294 1.14.93 1.315 1.61.158.62.017 1.755-.44 3.529-.466 1.806-.937 3.216-1.332 3.988-.734 1.432-1.776 2.294-3.119 2.579-.41.087-1.58.096-2 .016z"/></svg>