<?xml version="1.0" encoding="UTF-8" standalone="no"?>
<svg
   xmlns:dc="http://purl.org/dc/elements/1.1/"
   xmlns:cc="http://creativecommons.org/ns#"
   xmlns:rdf="http://www.w3.org/1999/02/22-rdf-syntax-ns#"
   xmlns:svg="http://www.w3.org/2000/svg"
   xmlns="http://www.w3.org/2000/svg"
   xmlns:sodipodi="http://sodipodi.sourceforge.net/DTD/sodipodi-0.dtd"
   xmlns:inkscape="http://www.inkscape.org/namespaces/inkscape"
   id="svg8"
   version="1.1"
   viewBox="0 0 49.732315 49.755864"
   height="188.05367"
   width="187.96466"
   sodipodi:docname="gbm.svg"
   inkscape:version="0.92.1 r15371">
  <sodipodi:namedview
     pagecolor="#ffffff"
     bordercolor="#666666"
     borderopacity="1"
     objecttolerance="10"
     gridtolerance="10"
     guidetolerance="10"
     inkscape:pageopacity="0"
     inkscape:pageshadow="2"
     inkscape:window-width="2382"
     inkscape:window-height="1862"
     id="namedview9"
     showgrid="false"
     inkscape:zoom="1.2488333"
     inkscape:cx="-236.73051"
     inkscape:cy="158.075"
     inkscape:window-x="209"
     inkscape:window-y="559"
     inkscape:window-maximized="0"
     inkscape:current-layer="svg8" />
  <defs
     id="defs2" />
  <metadata
     id="metadata5">
    <rdf:RDF>
      <cc:Work
         rdf:about="">
        <dc:format>image/svg+xml</dc:format>
        <dc:type
           rdf:resource="http://purl.org/dc/dcmitype/StillImage" />
        <dc:title></dc:title>
      </cc:Work>
    </rdf:RDF>
  </metadata>
  <path
     inkscape:connector-curvature="0"
     style="fill-opacity:1;stroke:none;stroke-width:0.062;stroke-miterlimit:4;stroke-dasharray:none;stroke-opacity:1"
     d="M 23.196564,49.737166 C 17.090904,49.256617 11.693234,46.826575 7.4228339,42.635803 3.3033539,38.593131 0.79955393,33.442085 0.10091393,27.572436 c -0.11996,-1.007787 -0.13731,-4.113245 -0.0286,-5.125784 C 0.71272393,16.479279 3.2739739,11.169931 7.5024039,7.044464 11.469464,3.173999 16.530784,0.77942101 22.129874,0.12401801 c 1.01758,-0.119113 3.42732,-0.163851 4.48578,-0.08328 6.2247,0.473835 11.79846,3.07006999 16.11077,7.50432999 3.87662,3.986252 6.22643,8.971287 6.90301,14.644508 0.13702,1.148904 0.13724,4.248163 2.6e-4,5.371956 -0.7282,5.979925 -3.23478,11.102147 -7.42877,15.180792 -3.97219,3.862943 -8.98887,6.232644 -14.60071,6.896846 -0.70473,0.08341 -3.73287,0.150796 -4.40372,0.098 z m -0.49234,-7.703378 c 4.58189,-0.397565 7.99983,-1.429472 10.6955,-3.229065 2.17289,-1.450594 3.37124,-2.949913 3.86843,-4.839988 0.18642,-0.708671 0.2352,-1.932797 0.10106,-2.535756 -0.29552,-1.328304 -1.31141,-2.453685 -2.96095,-3.280082 -1.93026,-0.967028 -3.61741,-1.144522 -11.56728,-1.216909 -3.60675,-0.03284 -4.9307,-0.08142 -6.04486,-0.221824 -1.17976,-0.148667 -1.73115,-0.351644 -2.11777,-0.779593 -0.25732,-0.284812 -0.33622,-0.542893 -0.30394,-0.994072 0.0605,-0.84517 0.81526,-1.884564 2.22251,-3.060556 l 0.57211,-0.478094 0.67622,0.341506 c 1.8266,0.922485 4.05035,1.464411 6.35267,1.548142 3.58005,0.1302 6.45369,-0.438687 9.07454,-1.796458 2.44391,-1.266109 3.8765,-2.811365 4.405,-4.751421 0.0898,-0.329823 0.11484,-0.584147 0.11653,-1.185745 0.002,-0.761557 8e-4,-0.770625 -0.25824,-1.612214 -0.18725,-0.608605 -0.25106,-0.896112 -0.22716,-1.023501 0.0588,-0.313487 0.46158,-1.047338 0.65636,-1.195908 0.30207,-0.2304 0.46299,-0.224839 1.49181,0.05156 1.03177,0.277186 1.15668,0.290082 1.62593,0.167857 0.72699,-0.189358 1.39616,-0.724199 1.58675,-1.268233 0.21934,-0.6261 0.15252,-1.431791 -0.15976,-1.926485 -0.17199,-0.272443 -0.65004,-0.694781 -0.96989,-0.856865 -0.53427,-0.270736 -1.33705,-0.366781 -1.97019,-0.235716 -0.76425,0.158206 -1.59415,0.770222 -2.16587,1.597246 -0.33155,0.479604 -0.80153,1.418788 -1.02533,2.048981 -0.0881,0.248222 -0.17447,0.451312 -0.19183,0.451312 -0.0174,0 -0.16363,-0.112731 -0.32505,-0.250514 -1.3736,-1.172484 -3.17461,-2.103305 -5.08072,-2.62588 -1.40365,-0.384823 -2.57818,-0.529351 -4.30197,-0.529364 -2.85834,-2.2e-5 -5.3526,0.588837 -7.832,1.849026 -2.63703,1.340302 -4.14531,2.9208 -4.644,4.866361 -0.19135,0.746503 -0.20403,1.696743 -0.032,2.400272 0.21995,0.899744 0.72166,1.766682 1.49132,2.576925 l 0.37912,0.399121 -0.61664,0.369603 c -2.15164,1.289649 -3.56331,2.667466 -4.26317,4.160938 -0.29953,0.639182 -0.43355,1.194285 -0.46833,1.939883 -0.0635,1.361183 0.38456,2.492083 1.3723,3.463708 0.37216,0.366093 1.10675,0.92099 1.51775,1.146495 l 0.18275,0.100271 -0.72542,0.264679 c -1.86844,0.681723 -3.1172401,1.306224 -4.1150101,2.057834 -1.17092,0.882041 -1.73223,1.75527 -1.78908,2.78329 -0.10686,1.93236 1.38536,3.484345 4.2542301,4.424608 1.60546,0.52618 3.35113,0.814986 5.9611,0.986213 0.74998,0.0492 4.63357,-0.02185 5.55252,-0.101584 z"
     id="path4515" />
  <path
     inkscape:connector-curvature="0"
     style="fill-opacity:1;stroke:none;stroke-width:0.0618205;stroke-miterlimit:4;stroke-dasharray:none;stroke-opacity:1"
     d="m 19.804874,40.546372 c -0.59191,-0.04824 -1.56205,-0.196009 -2.15995,-0.328991 -1.56323,-0.347689 -2.68232,-0.932725 -3.63873,-1.902243 -0.80877,-0.819851 -1.11775,-1.468199 -1.1626,-2.43953 -0.0331,-0.717126 0.0378,-1.073822 0.32928,-1.656209 0.17626,-0.3522 0.33145,-0.556072 0.72045,-0.946446 0.27269,-0.273651 0.64964,-0.600734 0.83766,-0.726848 l 0.34187,-0.229298 0.86164,0.191026 c 0.96323,0.213548 2.08126,0.377359 3.18658,0.466889 0.40618,0.0329 0.83698,0.07161 0.95733,0.08602 0.12035,0.01442 1.70815,0.04986 3.52844,0.07878 6.16422,0.09794 7.49465,0.279339 8.3605,1.139931 0.36425,0.362037 0.47469,0.652341 0.47231,1.241597 -0.006,1.361011 -0.91181,2.455616 -2.78795,3.367161 -1.63674,0.795229 -3.37818,1.287177 -5.52516,1.56083 -0.63302,0.08068 -3.68309,0.149376 -4.32167,0.09733 z"
     id="path4517" />
  <path
     inkscape:connector-curvature="0"
     style="fill-opacity:1;stroke:none;stroke-width:0.0618205;stroke-miterlimit:4;stroke-dasharray:none;stroke-opacity:1"
     d="m 23.258604,21.8091 c -0.37897,-0.07249 -0.91212,-0.327291 -1.16739,-0.557915 -0.25168,-0.227376 -0.519,-0.706431 -0.61462,-1.101448 -0.18698,-0.772373 -0.005,-2.196145 0.57864,-4.527065 0.87822,-3.507446 1.60024,-4.751501 3.17105,-5.463739 1.09488,-0.496444 2.64505,-0.52721 3.6081,-0.07161 0.62114,0.293844 1.14052,0.92993 1.31452,1.609877 0.15863,0.619917 0.017,1.754693 -0.44024,3.528446 -0.46572,1.806462 -0.93658,3.216459 -1.33202,3.988764 -0.73322,1.432016 -1.7755,2.293798 -3.11849,2.578429 -0.40989,0.08687 -1.58064,0.09639 -1.99955,0.01626 z"
     id="path4519" />
</svg>
